<svg width="512" height="481" viewBox="0 0 512 481" fill="none" xmlns="http://www.w3.org/2000/svg">
<path d="M448 167.8V44.8C448.018 38.9192 446.875 33.0927 444.636 27.6548C442.397 22.217 439.106 17.2749 434.951 13.1124C430.797 8.94982 425.862 5.6487 420.428 3.39852C414.995 1.14834 409.171 -0.00658468 403.29 2.82382e-05H280.36C272.299 0.0166128 264.57 3.21097 258.85 8.89003L13.09 254.58C4.70821 262.989 0.00158691 274.377 0.00158691 286.25C0.00158691 298.123 4.70821 309.511 13.09 317.92L130.09 434.92C138.496 443.304 149.883 448.012 161.755 448.012C173.627 448.012 185.014 443.304 193.42 434.92L439.11 189.31C444.791 183.591 447.986 175.861 448 167.8V167.8ZM352 128C345.671 128 339.484 126.123 334.222 122.607C328.959 119.091 324.858 114.093 322.436 108.246C320.014 102.399 319.38 95.9645 320.615 89.7571C321.85 83.5497 324.897 77.8479 329.373 73.3726C333.848 68.8973 339.55 65.8496 345.757 64.6149C351.965 63.3802 358.399 64.0139 364.246 66.4359C370.093 68.8579 375.091 72.9594 378.607 78.2218C382.123 83.4842 384 89.671 384 96C384 104.487 380.629 112.626 374.627 118.627C368.626 124.629 360.487 128 352 128Z" fill="#1AA090"/>
<path d="M496 48C491.757 48 487.687 49.6857 484.686 52.6863C481.686 55.6869 480 59.7565 480 64V191.37L218.69 452.69C217.142 454.161 215.904 455.927 215.049 457.884C214.194 459.841 213.739 461.949 213.712 464.085C213.684 466.22 214.085 468.34 214.889 470.318C215.694 472.296 216.887 474.093 218.397 475.603C219.907 477.113 221.704 478.306 223.682 479.111C225.66 479.915 227.78 480.316 229.915 480.288C232.051 480.261 234.159 479.806 236.116 478.951C238.073 478.096 239.839 476.858 241.31 475.31L503.31 213.31C506.097 210.51 508.3 207.185 509.792 203.526C511.284 199.868 512.034 195.95 512 192V64C512 59.7565 510.314 55.6869 507.314 52.6863C504.313 49.6857 500.243 48 496 48V48Z" fill="#1AA090"/>
</svg>
