<svg width="241" height="242" viewBox="0 0 241 242" fill="none" xmlns="http://www.w3.org/2000/svg">
<path d="M137.686 160.43L205.86 228.604" stroke="#1AA090" stroke-width="16"/>
<path d="M159.885 138.231L228.058 206.405" stroke="#1AA090" stroke-width="16"/>
<path d="M228.058 206.405C231.002 209.349 232.656 213.341 232.656 217.504C232.656 221.667 231.002 225.66 228.058 228.604" stroke="#1AA090" stroke-width="16" stroke-linecap="round" stroke-linejoin="round"/>
<path d="M205.86 228.603C208.803 231.547 212.796 233.201 216.959 233.201C221.122 233.201 225.115 231.547 228.058 228.603" stroke="#1AA090" stroke-width="16" stroke-linecap="round" stroke-linejoin="round"/>
<path d="M78.9388 8.8483C88.2148 8.8483 97.3999 10.6753 105.97 14.2251C114.54 17.7749 122.327 22.9779 128.886 29.537C135.445 36.0961 140.648 43.8829 144.198 52.4528C147.747 61.0227 149.574 70.2078 149.574 79.4838C149.574 88.7598 147.747 97.945 144.197 106.515C140.648 115.085 135.445 122.872 128.886 129.431C122.327 135.99 114.54 141.193 105.97 144.743C97.3999 148.292 88.2148 150.119 78.9388 150.119C60.2051 150.119 42.2386 142.677 28.9919 129.431C15.7452 116.184 8.30322 98.2176 8.30322 79.4838C8.30322 70.2078 10.1303 61.0227 13.68 52.4528C17.2298 43.8829 22.4328 36.0961 28.9919 29.537C35.551 22.9779 43.3378 17.7749 51.9077 14.2251C60.4776 10.6753 69.6628 8.8483 78.9388 8.8483Z" stroke="#1AA090" stroke-width="16" stroke-linecap="round" stroke-linejoin="round"/>
<path d="M137.686 160.43L159.885 138.231" stroke="#1AA090" stroke-width="16" stroke-linecap="round" stroke-linejoin="round"/>
<path d="M148.785 149.331L128.886 129.431" stroke="#1AA090" stroke-width="16" stroke-linecap="round" stroke-linejoin="round"/>
<path d="M156.634 179.378L178.833 157.179" stroke="#1AA090" stroke-width="16" stroke-linecap="round" stroke-linejoin="round"/>
<path d="M78.9387 40.2419C89.3463 40.2419 99.3277 44.3763 106.687 51.7356C114.046 59.0949 118.181 69.0763 118.181 79.4839" stroke="#1AA090" stroke-width="16" stroke-linecap="round" stroke-linejoin="round"/>
</svg>
