<svg width="182" height="49" viewBox="0 0 182 49" fill="none" xmlns="http://www.w3.org/2000/svg">
<path d="M22.9131 27.8905C22.741 30.2687 21.8606 32.1409 20.2718 33.507C18.6931 34.8732 16.6084 35.5563 14.0177 35.5563C11.1841 35.5563 8.95271 34.605 7.32341 32.7025C5.70423 30.7899 4.89464 28.1688 4.89464 24.8394V23.4884C4.89464 21.3632 5.26908 19.491 6.01795 17.8719C6.76682 16.2527 7.83446 15.013 9.22088 14.1528C10.6174 13.2825 12.2366 12.8473 14.0784 12.8473C16.6286 12.8473 18.683 13.5304 20.2414 14.8966C21.7999 16.2628 22.7005 18.1805 22.9434 20.6498H18.3895C18.2782 19.2229 17.8784 18.1906 17.1903 17.5531C16.5122 16.9054 15.475 16.5816 14.0784 16.5816C12.5604 16.5816 11.422 17.128 10.663 18.221C9.91409 19.3038 9.52954 20.9888 9.5093 23.2759V24.9456C9.5093 27.3339 9.86856 29.0796 10.5871 30.1827C11.3157 31.2857 12.4592 31.8373 14.0177 31.8373C15.4244 31.8373 16.4718 31.5185 17.1599 30.8809C17.8582 30.2333 18.2579 29.2365 18.3591 27.8905H22.9131Z" fill="#83898F"/>
<path d="M45.4186 25.6743H36.6751V31.5944H46.9366V35.2527H32.1211V13.1509H46.9062V16.8396H36.6751V22.107H45.4186V25.6743Z" fill="#83898F"/>
<path d="M68.3037 30.6988H60.3191L58.8011 35.2527H53.9588L62.1862 13.1509H66.4062L74.6792 35.2527H69.8368L68.3037 30.6988ZM61.5487 27.0101H67.0741L64.2962 18.7371L61.5487 27.0101Z" fill="#83898F"/>
<path d="M97.7768 16.8396H91.0066V35.2527H86.4526V16.8396H79.7735V13.1509H97.7768V16.8396Z" fill="#83898F"/>
<path d="M124.593 35.2527H120.039V25.7805H111.159V35.2527H106.605V13.1509H111.159V22.107H120.039V13.1509H124.593V35.2527Z" fill="#83898F"/>
<path d="M148.101 25.6743H139.357V31.5944H149.619V35.2527H134.803V13.1509H149.588V16.8396H139.357V22.107H148.101V25.6743Z" fill="#83898F"/>
<path d="M169.969 29.454C169.969 28.5938 169.665 27.9361 169.058 27.4807C168.451 27.0151 167.358 26.5294 165.779 26.0234C164.201 25.5073 162.951 25.0013 162.03 24.5054C159.52 23.1494 158.265 21.3227 158.265 19.0255C158.265 17.8314 158.599 16.7688 159.267 15.8378C159.945 14.8966 160.912 14.1629 162.166 13.6367C163.431 13.1105 164.848 12.8473 166.417 12.8473C167.995 12.8473 169.402 13.1358 170.637 13.7126C171.871 14.2793 172.828 15.0838 173.506 16.1262C174.194 17.1685 174.538 18.3525 174.538 19.6782H169.984C169.984 18.6663 169.665 17.882 169.028 17.3254C168.39 16.7587 167.495 16.4753 166.341 16.4753C165.228 16.4753 164.362 16.7131 163.745 17.1888C163.128 17.6543 162.819 18.2716 162.819 19.0407C162.819 19.7592 163.178 20.3613 163.897 20.8471C164.626 21.3328 165.693 21.7882 167.1 22.2133C169.691 22.9925 171.578 23.959 172.762 25.1126C173.946 26.2663 174.538 27.7033 174.538 29.4237C174.538 31.3363 173.814 32.8391 172.367 33.9321C170.92 35.0149 168.972 35.5563 166.523 35.5563C164.823 35.5563 163.275 35.2477 161.878 34.6303C160.481 34.0029 159.414 33.1478 158.675 32.065C157.946 30.9821 157.582 29.7273 157.582 28.3004H162.151C162.151 30.7393 163.608 31.9587 166.523 31.9587C167.606 31.9587 168.451 31.7411 169.058 31.306C169.665 30.8607 169.969 30.2434 169.969 29.454Z" fill="#83898F"/>
<path d="M0.258301 0.833618H181.236V3.05421H0.258301V0.833618Z" fill="#83898F"/>
<path d="M0.258301 46.3557H181.236V48.5762H0.258301V46.3557Z" fill="#83898F"/>
</svg>
